Coordinates
version=1
nRows=8
nColumns=42
inDegrees=yes

Units are S.I. units (second, meters, Newtons, ...)
If the header above contains a line with 'inDegrees', this indicates whether rotational values are in degrees (yes) or radians (no).

endheader
time	pelvis_tilt	pelvis_list	pelvis_rotation	pelvis_tx	pelvis_ty	pelvis_tz	hip_flexion_r	hip_adduction_r	hip_rotation_r	knee_angle_r	knee_adduction_r	knee_angle_r_beta	ankle_angle_r	subtalar_angle_r	mtp_angle_r	hip_flexion_l	hip_adduction_l	hip_rotation_l	knee_angle_l	knee_adduction_l	knee_angle_l_beta	ankle_angle_l	subtalar_angle_l	mtp_angle_l	lumbar_extension	lumbar_bending	lumbar_rotation	arm_flex_r	arm_add_r	arm_rot_r	elbow_flex_r	pro_sup_r	wrist_flex_r	wrist_dev_r	arm_flex_l	arm_add_l	arm_rot_l	elbow_flex_l	pro_sup_l	wrist_flex_l	wrist_dev_l
      1.25000000	     23.44150469	      4.49374993	      2.02415377	     -0.01014190	      0.94273183	     -0.24588249	    -29.03031171	     -4.70215562	    -20.65990460	     42.60019080	    -11.18138715	      0.74351359	      2.95541440	     16.36767212	     -7.56903408	     -5.27766246	      9.46295644	      4.52172415	     28.23932703	     -1.13841578	      0.49286924	      6.19673384	    -17.84597229	     -7.56903408	    -35.58094653	     -5.08334370	      4.36780793	     13.16279829	    -10.43026056	    -17.76398955	     31.17535921	     90.00000001	      0.00000000	      0.00000000	     -3.00861262	    -16.20955980	      2.65349039	     66.62243096	     90.00000001	      0.00000000	      0.00000000
      1.26000000	     23.63016426	      4.73401195	      2.07032780	     -0.00365586	      0.94347165	     -0.24866996	    -28.66334508	     -5.34482393	    -19.98678444	     44.54395318	    -10.69553965	      0.77743864	      1.58145547	     15.76201203	     -7.56793950	     -6.17025056	      9.87094652	      3.74927321	     27.73812240	     -1.52055273	      0.48412156	      6.55699391	    -17.49270370	     -7.56793950	    -35.73673102	     -5.28184506	      4.32035190	     12.36940108	    -10.64066985	    -17.98986433	     30.95286709	     90.00000001	      0.00000000	      0.00000000	     -2.93326122	    -16.20429168	      2.67640675	     66.72364667	     90.00000001	      0.00000000	      0.00000000
      1.27000000	     23.80599213	      4.71182235	      2.14701948	      0.00244368	      0.94434827	     -0.25125257	    -28.22893965	     -5.51361852	    -17.50793846	     46.64559365	     -9.10567663	      0.81411919	     -0.60672205	     10.44694066	     -7.56359770	     -6.91624004	      9.92255318	      2.78510603	     27.44113663	     -1.85803285	      0.47893818	      6.98496740	    -16.67630692	     -7.56359770	    -35.91694583	     -5.20395779	      4.31444852	     11.77159323	    -10.78429165	    -18.79140866	     30.70851856	     90.00000001	      0.00000000	      0.00000000	     -2.85487745	    -16.30463444	      2.94365753	     66.95680706	     90.00000001	      0.00000000	      0.00000000
      1.28000000	     23.87431328	      4.86467987	      2.16823415	      0.00844036	      0.94479751	     -0.25384800	    -27.48985909	     -6.05500459	    -16.79871073	     48.77189848	     -8.67283427	      0.85123021	     -1.53081888	      9.87729706	     -7.56251914	     -7.53886756	     10.22609467	      2.13278951	     27.14093949	     -2.13123002	      0.47369876	      7.35283314	    -16.26312825	     -7.56251914	    -35.99781524	     -5.33296925	      4.27710028	     11.07371632	    -10.99390832	    -18.99733594	     30.53478445	     90.00000001	      0.00000000	      0.00000000	     -2.72150633	    -16.29700471	      2.95840743	     67.07676154	     90.00000001	      0.00000000	      0.00000000
      1.29000000	     23.91286259	      4.78444481	      2.23384041	      0.01410931	      0.94530022	     -0.25619189	    -26.68707272	     -6.15172802	    -14.30920787	     51.05193420	     -6.99717425	      0.89102434	     -2.99508757	      4.56352482	     -7.55890594	     -7.95117999	     10.20639453	      1.24249076	     27.14320052	     -2.41401474	      0.47373822	      7.92360867	    -15.24311590	     -7.55890594	    -36.07891406	     -5.22930737	      4.28659668	     10.55359538	    -11.11853985	    -19.73742908	     30.22993197	     90.00000001	      0.00000000	      0.00000000	     -2.61788354	    -16.41618453	      3.18936031	     67.31488984	     90.00000001	      0.00000000	      0.00000000
      1.30000000	     23.92897078	      4.74800966	      2.25304339	      0.01963731	      0.94567305	     -0.25843598	    -25.75574262	     -6.36839276	    -12.64269773	     53.23209411	     -5.87441069	      0.92907531	     -3.86272892	      1.51629374	     -7.55506238	     -8.36623347	     10.27266598	      0.88998601	     27.10618631	     -2.52073161	      0.47309220	      8.38623225	    -14.82079638	     -7.55506238	    -36.14868888	     -5.19526415	      4.33343987	     10.05929592	    -11.22987543	    -20.57369912	     29.88991103	     90.00000001	      0.00000000	      0.00000000	     -2.42281180	    -16.45220430	      3.30707582	     67.44413367	     90.00000001	      0.00000000	      0.00000000
      1.31000000	     23.98176433	      4.74807406	      2.22066317	      0.02504410	      0.94595481	     -0.26055402	    -24.75016531	     -6.66352260	    -12.17473958	     55.29622980	     -5.74409233	      0.96510127	     -3.93616899	      1.02802402	     -7.55418579	     -8.80857761	     10.38038918	      0.72131171	     27.07945528	     -2.51393658	      0.47262565	      8.77227486	    -14.58271281	     -7.55418579	    -36.27232446	     -5.21347631	      4.35248470	      9.50058819	    -11.43544457	    -20.73177711	     29.79470589	     90.00000001	      0.00000000	      0.00000000	     -2.22919760	    -16.47419392	      3.29133098	     67.61852546	     90.00000001	      0.00000000	      0.00000000
      1.32000000	     23.98088423	      4.69989225	      2.17235775	      0.03029265	      0.94616022	     -0.26250012	    -23.62574781	     -6.89041156	    -11.59353869	     57.35017620	     -5.52000328	      1.00094940	     -3.61323928	     -0.15047324	     -7.55328421	     -9.14569838	     10.44061352	      0.73564679	     27.15397612	     -2.46077762	      0.47392629	      9.20316639	    -14.45504725	     -7.55328421	    -36.33845159	     -5.22355509	      4.40074273	      8.96072265	    -11.61999211	    -20.90600388	     29.67684652	     90.00000001	      0.00000000	      0.00000000	     -2.02730015	    -16.52277410	      3.29464216	     67.83854149	     90.00000001	      0.00000000	      0.00000000
